<svg
  xmlns="http://www.w3.org/2000/svg"
  width="108"
  height="46"
  viewBox="0 0 108 46"
>
  <g fill="none" fill-rule="evenodd">
    <g fill="#FFD204">
      <path
        d="M107.52 6.633l.48-.502-.48-.48.464-.5-.464-.49.464-.509-.464-.48.464-.503-.464-.489.45-.51-.456-.503.464-.477-.464-.519.456-.482-.206-.189h-.204L69.735.189l-.303.351.464.481-.464.525.464.502-.45.51.45.495-.45.513.45.525-.434.5.102.122-.012-.008-.376.094-.12-.39-.362-.18-.404.124-.203-.46-.201-.117-.516.15-.218-.555-.138-.086-.579.204-.217-.639-.017-.026-.67.22-.248-.648-.638.218-.248-.661-.689.201-.091-.295c-1.325 2.37-9.098 16.332-9.443 16.957l-1.325.037c-.341-.725-7.49-14.701-8.551-16.76l-.139.303-.674-.179-.23.639-.656-.181-.264.635-.669-.206-.235.65-.687-.188-.233.663-.69-.195-.215.639-.636-.202-.034.03-.246.625-.232-.075-.37-.39.464-.509-.464-.48.464-.503-.464-.489.45-.51-.456-.503.464-.477-.464-.519.456-.482L38.332 0h-.204L.303.189 0 .54l.464.481L0 1.546l.464.502-.45.51.45.495-.45.513.45.525-.434.5.44.52-.446.505.446.463-.43.532.43.503-.44.48.44.486-.43.51.456.507-.456.506.456.49-.45.48.531.562.024 22.921c-.16.024-.35.024-.464.024l-.091.122.472.47-.419.46.01.112.409.42-.335.367v.26l.335.374-.282.294.03.397.252.312-.215.237.046.564.183.198-.167.19.048.647.105.119-.091.085.07.839.021.057-.022.044.113 1.629.024 3.417.31.29h.297l.357-.31.351.326.326-.016.343-.29.325.306h.375l.32-.306.29.306.446-.016.297-.248.26.248h.478l.276-.248.248.248h.52l.244-.204.212.198h.578l.226-.175.19.175.627.006.19-.167.165.161h.687l.15-.137.161.137h.73l.145-.137.105.137h.67s.007-1.25-.007-1.72c1.24-.105 11.921-.854 13.336-.962v1.836l.48-.404.478.465.534-.449.484.471.532-.439.486.47.52-.448.504.457.5-.435.493.473.542-.465.478.47.54-.448.48.488.494-.488.52.488.494-.456.462.47.518-.45.472.46.526-.435.387.372v-2.75c.222-.022.59-.067.59-.067l-.606-8.539s0-4.6-.008-5.832c.222.007.585.011.585.011l.29-10.936-19.743-.496-.28 10.898s6.992.213 8.222.245l.018 4.517c-1.232.085-11.92.854-13.328.938l-.024-22.212c1.266 0 21.142-.113 26.258-.163L47.772 30.51s.7-.368.73-.374c.034 1.747.33 13.175.391 15.569l.262-.256.533.492.528-.478.483.482.547-.443.498.453.532-.44.496.485.544-.452.484.452.56-.452.468.452.08-.008.464-.43.425.393h.185l.418-.358.331.348h.31l.375-.326.31.306.391-.008.33-.283.263.26h.013s-.325-14.214-.405-16.328c.08.05.872.484.872.484l10.622-19.123.197.208.024 22.921c-.16.024-.351.024-.464.024l-.092.122.473.47-.419.46.01.112.409.42-.336.367v.26l.336.374-.282.294.03.397.252.312-.215.237.046.564.183.198-.167.19.048.647.105.119-.092.085.07.839.022.057-.022.044.113 1.629.024 3.417.31.29h.297l.357-.31.351.326.325-.016.344-.29.325.306h.375l.32-.306.29.306.445-.016.298-.248.26.248h.478l.276-.248.248.248h.52l.244-.204.212.198h.577l.226-.175.191.175.627.006.19-.167.165.161h.686l.151-.137.161.137h.73l.145-.137.105.137h.67s.006-1.25-.007-1.72c1.24-.105 11.921-.854 13.336-.962v1.836l.48-.404.478.465.534-.449.484.471.532-.439.486.47.52-.448.503.457.5-.435.494.473.542-.465.478.47.54-.448.48.488.494-.488.52.488.494-.456.462.47.518-.45.472.46.526-.435.386.372v-2.75c.223-.022.592-.067.592-.067l-.607-8.539s0-4.6-.008-5.832c.222.007.585.011.585.011l.29-10.936-19.743-.496-.28 10.898s6.992.213 8.222.245l.018 4.517c-1.232.085-11.92.854-13.328.938l-.024-22.212c1.323 0 22.988-.124 26.869-.17l-.258-.29.456-.5-.464-.49.464-.51-.456-.478.456-.525-.464-.467.464-.508-.48-.505z"
        transform="translate(-486 -777) translate(486 777)"
      ></path>
    </g>
  </g>
</svg>